<?xml version="1.0" encoding="utf-8"?>
<!-- Generator: Adobe Illustrator 16.0.0, SVG Export Plug-In . SVG Version: 6.00 Build 0)  -->
<!DOCTYPE svg PUBLIC "-//W3C//DTD SVG 1.1//EN" "http://www.w3.org/Graphics/SVG/1.1/DTD/svg11.dtd">
<svg version="1.1" id="Capa_1" xmlns="http://www.w3.org/2000/svg" xmlns:xlink="http://www.w3.org/1999/xlink" x="0px" y="0px"
	 width="90px" height="90px" viewBox="0 0 90 90" enable-background="new 0 0 90 90" xml:space="preserve">
<circle fill="#FFFFFF" cx="45" cy="45" r="45"/>
<g>
	<path fill="#404040" d="M45,6.794c-7.041,0-13.636,1.906-19.3,5.229v15.583c4.762-5.278,11.648-8.602,19.3-8.602
		c14.334,0,25.996,11.662,25.996,25.996S59.334,70.996,45,70.996S19.004,59.334,19.004,45V17.006
		C11.494,23.981,6.794,33.941,6.794,45c0,21.101,17.105,38.206,38.206,38.206S83.206,66.101,83.206,45S66.101,6.794,45,6.794z"/>
	<path fill="#404040" d="M45,64.3c10.642,0,19.3-8.658,19.3-19.3S55.642,25.7,45,25.7S25.7,34.358,25.7,45S34.358,64.3,45,64.3z"/>
</g>
<path fill="#E1301E" d="M45,70.996c-14.334,0-25.996-11.662-25.996-25.996S30.666,19.004,45,19.004V25.7
	c-10.643,0-19.3,8.658-19.3,19.3S34.357,64.3,45,64.3c4.976,0,9.699-1.889,13.302-5.316c2.559-2.435,4.398-5.509,5.32-8.893
	l6.461,1.761c-1.244,4.563-3.722,8.705-7.165,11.982C58.064,68.452,51.701,70.996,45,70.996z"/>
</svg>
