<?xml version="1.0" encoding="utf-8"?>
<!-- Generator: Adobe Illustrator 16.0.0, SVG Export Plug-In . SVG Version: 6.00 Build 0)  -->
<!DOCTYPE svg PUBLIC "-//W3C//DTD SVG 1.1//EN" "http://www.w3.org/Graphics/SVG/1.1/DTD/svg11.dtd">
<svg version="1.1" id="Capa_1" xmlns="http://www.w3.org/2000/svg" xmlns:xlink="http://www.w3.org/1999/xlink" x="0px" y="0px"
	 width="36px" height="36px" viewBox="0 0 36 36" enable-background="new 0 0 36 36" xml:space="preserve">
<path fill="#FFFFFF" d="M18.004,36c-4.611,0-9.221-1.754-12.73-5.265C1.873,27.336,0,22.813,0,18.004S1.872,8.674,5.273,5.273
	C8.673,1.873,13.194,0,18.003,0l0.001,4.638c-3.571,0.001-6.928,1.39-9.452,3.916c-2.525,2.524-3.916,5.88-3.916,9.451
	c0,3.57,1.39,6.927,3.916,9.453c2.525,2.522,5.882,3.914,9.452,3.914c3.57,0,6.927-1.392,9.452-3.914
	c2.523-2.525,3.914-5.883,3.914-9.453c0-2.786-0.846-5.44-2.416-7.671l-9.311,9.311l-3.279-3.279l12.73-12.73l1.64,1.64
	c7.021,7.021,7.021,18.442,0,25.462C27.226,34.246,22.614,36,18.004,36z"/>
</svg>
